<svg width="992" height="1079" viewBox="0 0 992 1079" fill="none" xmlns="http://www.w3.org/2000/svg">
<rect x="-57.6484" width="1081.94" height="1457.64" transform="rotate(14.0696 -57.6484 0)" fill="url(#paint0_linear_0_1)"/>
<path d="M-55.1911 358.052C-55.0845 330.567 -48.3196 306.916 -34.8963 287.101C-21.473 267.392 -2.03054 252.211 23.4311 241.557C48.8928 231.01 79.5213 225.79 115.317 225.897C151.006 225.897 181.421 231.17 206.563 241.717C231.705 252.371 250.828 267.552 263.932 287.26C277.142 307.076 283.747 330.673 283.747 358.052C283.747 385.432 277.142 408.976 263.932 428.684C250.722 448.5 231.545 463.734 206.403 474.388C181.368 485.041 151.006 490.314 115.317 490.208C79.4148 490.208 48.733 484.881 23.2713 474.228C-2.19034 463.681 -21.6328 448.553 -35.0561 428.844C-48.4794 409.135 -55.1911 385.538 -55.1911 358.052ZM2.17756 358.052C2.17756 376.802 11.6058 391.77 30.4624 402.957C49.3189 414.143 77.6037 419.682 115.317 419.576C140.139 419.576 160.807 417.019 177.32 411.905C193.832 406.898 206.244 399.76 214.553 390.492C222.863 381.33 227.018 370.517 227.018 358.052C227.018 339.409 217.696 324.494 199.053 313.308C180.409 302.122 152.497 296.476 115.317 296.369C90.1747 296.369 69.1875 298.873 52.3551 303.88C35.6293 308.993 23.0582 316.184 14.642 325.453C6.33239 334.721 2.17756 345.588 2.17756 358.052ZM9.52841 534.593H64.0206L279.273 671.223V718.204H203.847V690.399L67.5362 604.266H64.9794L64.9794 798.424H9.52841L9.52841 534.593ZM-48 691.677H26.1477L50.2777 692.956H279.273V757.835H-48V691.677Z" fill="url(#paint1_linear_0_1)"/>
<defs>
<linearGradient id="paint0_linear_0_1" x1="1024.3" y1="729.499" x2="-57.6484" y2="729.499" gradientUnits="userSpaceOnUse">
<stop stop-color="#161616" stop-opacity="0"/>
<stop offset="0.586538" stop-color="#161616"/>
</linearGradient>
<linearGradient id="paint1_linear_0_1" x1="352.5" y1="511" x2="-71.5" y2="511" gradientUnits="userSpaceOnUse">
<stop stop-color="#B2B2B2" stop-opacity="0.35"/>
<stop offset="0.730769" stop-color="#161616"/>
</linearGradient>
</defs>
</svg>
