<svg width="284" height="573" viewBox="0 0 284 573" fill="none" xmlns="http://www.w3.org/2000/svg">
<path d="M-55.1911 132.316C-55.0845 104.83 -48.3196 81.1792 -34.8963 61.3639C-21.473 41.6551 -2.03054 26.4739 23.4311 15.8205C48.8928 5.27366 79.5213 0.0534892 115.317 0.160023C151.006 0.160023 181.421 5.43346 206.563 15.9803C231.705 26.6337 250.828 41.8149 263.932 61.5237C277.142 81.339 283.747 104.936 283.747 132.316C283.747 159.695 277.142 183.239 263.932 202.948C250.722 222.763 231.545 237.997 206.403 248.651C181.368 259.304 151.006 264.578 115.317 264.471C79.4148 264.471 48.733 259.144 23.2713 248.491C-2.19034 237.944 -21.6328 222.816 -35.0561 203.107C-48.4794 183.399 -55.1911 159.801 -55.1911 132.316ZM2.17756 132.316C2.17756 151.066 11.6058 166.034 30.4624 177.22C49.3189 188.406 77.6037 193.946 115.317 193.839C140.139 193.839 160.807 191.282 177.32 186.169C193.832 181.161 206.244 174.024 214.553 164.755C222.863 155.593 227.018 144.78 227.018 132.316C227.018 113.672 217.696 98.7573 199.053 87.5712C180.409 76.3852 152.497 70.7389 115.317 70.6323C90.1747 70.6323 69.1875 73.1359 52.3551 78.143C35.6293 83.2566 23.0582 90.4477 14.642 99.7161C6.33239 108.985 2.17756 119.851 2.17756 132.316ZM9.52841 308.856H64.0206L279.273 445.486V492.467H203.847V464.662L67.5362 378.529H64.9794L64.9794 572.688H9.52841L9.52841 308.856ZM-48 465.94H26.1477L50.2777 467.219H279.273V532.098H-48V465.94Z" fill="url(#paint0_linear_2_66)"/>
<defs>
<linearGradient id="paint0_linear_2_66" x1="352.5" y1="285.263" x2="-71.5" y2="285.263" gradientUnits="userSpaceOnUse">
<stop stop-color="#B2B2B2" stop-opacity="0.35"/>
<stop offset="0.730769" stop-color="#161616"/>
</linearGradient>
</defs>
</svg>
